<mxfile host="app.diagrams.net" modified="2023-10-10T12:51:31.632Z" agent="Mozilla/5.0 (Windows NT 10.0; Win64; x64) AppleWebKit/537.36 (KHTML, like Gecko) Chrome/117.0.0.0 Safari/537.36" etag="LMZ1UbpHvqVB2FSas48u" version="22.0.4" type="github">
  <diagram name="Page-1" id="38b20595-45e3-9b7f-d5ca-b57f44c5b66d">
    <mxGraphModel dx="6606" dy="6500" grid="1" gridSize="10" guides="1" tooltips="1" connect="1" arrows="1" fold="1" page="1" pageScale="1" pageWidth="1100" pageHeight="850" background="none" math="0" shadow="0">
      <root>
        <mxCell id="0" />
        <mxCell id="1" parent="0" />
        <mxCell id="Ov3hjR12CI4Dyam863P--144" value="" style="verticalLabelPosition=bottom;verticalAlign=top;html=1;shape=mxgraph.basic.rect;fillColor2=none;strokeWidth=1;size=20;indent=5;" parent="1" vertex="1">
          <mxGeometry x="1320" y="480" width="160" height="121.5" as="geometry" />
        </mxCell>
        <mxCell id="Ov3hjR12CI4Dyam863P--143" value="" style="verticalLabelPosition=bottom;verticalAlign=top;html=1;shape=mxgraph.basic.rect;fillColor2=none;strokeWidth=1;size=20;indent=5;" parent="1" vertex="1">
          <mxGeometry x="920" y="199" width="320" height="242.5" as="geometry" />
        </mxCell>
        <mxCell id="Ov3hjR12CI4Dyam863P--64" value="" style="rounded=0;whiteSpace=wrap;html=1;rotation=-180;strokeColor=#b3b3b3;" parent="1" vertex="1">
          <mxGeometry x="522" y="523.88" width="40" height="36" as="geometry" />
        </mxCell>
        <mxCell id="Ov3hjR12CI4Dyam863P--46" value="" style="shape=partialRectangle;whiteSpace=wrap;html=1;right=0;top=0;bottom=0;fillColor=none;routingCenterX=-0.5;" parent="1" vertex="1">
          <mxGeometry x="232" y="121" width="120" height="40" as="geometry" />
        </mxCell>
        <mxCell id="Ov3hjR12CI4Dyam863P--47" value="" style="shape=partialRectangle;whiteSpace=wrap;html=1;right=0;top=0;bottom=0;fillColor=none;routingCenterX=-0.5;" parent="1" vertex="1">
          <mxGeometry x="222" y="121" width="120" height="40" as="geometry" />
        </mxCell>
        <mxCell id="Ov3hjR12CI4Dyam863P--48" value="" style="shape=partialRectangle;whiteSpace=wrap;html=1;right=0;top=0;bottom=0;fillColor=none;routingCenterX=-0.5;" parent="1" vertex="1">
          <mxGeometry x="212" y="121" width="120" height="40" as="geometry" />
        </mxCell>
        <mxCell id="Ov3hjR12CI4Dyam863P--50" value="" style="shape=partialRectangle;whiteSpace=wrap;html=1;right=0;top=0;bottom=0;fillColor=none;routingCenterX=-0.5;" parent="1" vertex="1">
          <mxGeometry x="212" y="131" width="120" height="40" as="geometry" />
        </mxCell>
        <mxCell id="Ov3hjR12CI4Dyam863P--49" value="" style="shape=partialRectangle;whiteSpace=wrap;html=1;right=0;top=0;bottom=0;fillColor=none;routingCenterX=-0.5;" parent="1" vertex="1">
          <mxGeometry x="202" y="121" width="120" height="40" as="geometry" />
        </mxCell>
        <mxCell id="Ov3hjR12CI4Dyam863P--51" value="" style="shape=partialRectangle;whiteSpace=wrap;html=1;right=0;top=0;bottom=0;fillColor=none;routingCenterX=-0.5;" parent="1" vertex="1">
          <mxGeometry x="192" y="121" width="120" height="39" as="geometry" />
        </mxCell>
        <mxCell id="Ov3hjR12CI4Dyam863P--44" value="" style="shape=partialRectangle;whiteSpace=wrap;html=1;right=0;top=0;bottom=0;fillColor=none;routingCenterX=-0.5;" parent="1" vertex="1">
          <mxGeometry x="242" y="121" width="120" height="40" as="geometry" />
        </mxCell>
        <mxCell id="Ov3hjR12CI4Dyam863P--26" value="" style="endArrow=none;html=1;rounded=0;strokeWidth=4;strokeColor=#CCCCCC;" parent="1" edge="1">
          <mxGeometry width="50" height="50" relative="1" as="geometry">
            <mxPoint x="282" y="120" as="sourcePoint" />
            <mxPoint x="282" y="200" as="targetPoint" />
          </mxGeometry>
        </mxCell>
        <mxCell id="Ov3hjR12CI4Dyam863P--3" value="" style="endArrow=none;html=1;rounded=0;" parent="1" edge="1">
          <mxGeometry width="50" height="50" relative="1" as="geometry">
            <mxPoint x="1359.46" y="720" as="sourcePoint" />
            <mxPoint x="1479.46" y="720" as="targetPoint" />
          </mxGeometry>
        </mxCell>
        <mxCell id="Ov3hjR12CI4Dyam863P--4" value="" style="endArrow=none;html=1;rounded=0;" parent="1" edge="1">
          <mxGeometry width="50" height="50" relative="1" as="geometry">
            <mxPoint x="1479.46" y="800" as="sourcePoint" />
            <mxPoint x="1479.46" y="720" as="targetPoint" />
          </mxGeometry>
        </mxCell>
        <mxCell id="Ov3hjR12CI4Dyam863P--5" value="" style="endArrow=none;html=1;rounded=0;" parent="1" edge="1">
          <mxGeometry width="50" height="50" relative="1" as="geometry">
            <mxPoint x="1359.46" y="800" as="sourcePoint" />
            <mxPoint x="1479.46" y="800" as="targetPoint" />
          </mxGeometry>
        </mxCell>
        <mxCell id="Ov3hjR12CI4Dyam863P--6" value="" style="endArrow=classic;html=1;rounded=0;" parent="1" edge="1">
          <mxGeometry width="50" height="50" relative="1" as="geometry">
            <mxPoint x="1399.46" y="750" as="sourcePoint" />
            <mxPoint x="1399.46" y="720" as="targetPoint" />
          </mxGeometry>
        </mxCell>
        <mxCell id="Ov3hjR12CI4Dyam863P--7" value="" style="endArrow=classic;html=1;rounded=0;" parent="1" edge="1">
          <mxGeometry width="50" height="50" relative="1" as="geometry">
            <mxPoint x="1399.46" y="770" as="sourcePoint" />
            <mxPoint x="1399.46" y="800" as="targetPoint" />
          </mxGeometry>
        </mxCell>
        <mxCell id="Ov3hjR12CI4Dyam863P--8" value="Player" style="text;strokeColor=none;align=center;fillColor=none;html=1;verticalAlign=middle;whiteSpace=wrap;rounded=0;" parent="1" vertex="1">
          <mxGeometry x="1359.46" y="741" width="60" height="30" as="geometry" />
        </mxCell>
        <mxCell id="Ov3hjR12CI4Dyam863P--9" value="" style="ellipse;whiteSpace=wrap;html=1;aspect=fixed;fillColor=#fa6800;fontColor=#000000;strokeColor=#000000;" parent="1" vertex="1">
          <mxGeometry x="1369.46" y="775" width="24" height="24" as="geometry" />
        </mxCell>
        <mxCell id="Ov3hjR12CI4Dyam863P--11" value="" style="endArrow=none;html=1;rounded=0;strokeWidth=4;jumpStyle=none;" parent="1" edge="1">
          <mxGeometry width="50" height="50" relative="1" as="geometry">
            <mxPoint x="82" y="360" as="sourcePoint" />
            <mxPoint x="82" y="200" as="targetPoint" />
          </mxGeometry>
        </mxCell>
        <mxCell id="Ov3hjR12CI4Dyam863P--12" value="" style="endArrow=none;html=1;rounded=0;strokeWidth=4;" parent="1" edge="1">
          <mxGeometry width="50" height="50" relative="1" as="geometry">
            <mxPoint x="80" y="440" as="sourcePoint" />
            <mxPoint x="404" y="440" as="targetPoint" />
          </mxGeometry>
        </mxCell>
        <mxCell id="Ov3hjR12CI4Dyam863P--13" value="" style="endArrow=none;html=1;rounded=0;strokeWidth=4;" parent="1" edge="1">
          <mxGeometry width="50" height="50" relative="1" as="geometry">
            <mxPoint x="402" y="440" as="sourcePoint" />
            <mxPoint x="402" y="200" as="targetPoint" />
          </mxGeometry>
        </mxCell>
        <mxCell id="Ov3hjR12CI4Dyam863P--14" value="" style="endArrow=none;html=1;rounded=0;strokeWidth=4;jumpStyle=none;" parent="1" edge="1">
          <mxGeometry width="50" height="50" relative="1" as="geometry">
            <mxPoint x="80" y="200" as="sourcePoint" />
            <mxPoint x="404" y="200" as="targetPoint" />
          </mxGeometry>
        </mxCell>
        <mxCell id="Ov3hjR12CI4Dyam863P--15" value="" style="ellipse;whiteSpace=wrap;html=1;aspect=fixed;fillColor=#fa6800;fontColor=#000000;strokeColor=#000000;" parent="1" vertex="1">
          <mxGeometry x="112" y="410" width="24" height="24" as="geometry" />
        </mxCell>
        <mxCell id="Ov3hjR12CI4Dyam863P--16" value="" style="endArrow=none;html=1;rounded=0;strokeWidth=4;" parent="1" edge="1">
          <mxGeometry width="50" height="50" relative="1" as="geometry">
            <mxPoint x="82" y="440" as="sourcePoint" />
            <mxPoint x="82" y="400" as="targetPoint" />
          </mxGeometry>
        </mxCell>
        <mxCell id="Ov3hjR12CI4Dyam863P--17" value="" style="endArrow=none;html=1;rounded=0;strokeWidth=4;strokeColor=#B3B3B3;" parent="1" edge="1">
          <mxGeometry width="50" height="50" relative="1" as="geometry">
            <mxPoint x="2" y="440" as="sourcePoint" />
            <mxPoint x="80" y="440" as="targetPoint" />
          </mxGeometry>
        </mxCell>
        <mxCell id="Ov3hjR12CI4Dyam863P--18" value="" style="endArrow=none;html=1;rounded=0;strokeWidth=4;strokeColor=#B3B3B3;" parent="1" edge="1">
          <mxGeometry width="50" height="50" relative="1" as="geometry">
            <mxPoint x="2" y="120" as="sourcePoint" />
            <mxPoint x="2" y="442" as="targetPoint" />
          </mxGeometry>
        </mxCell>
        <mxCell id="Ov3hjR12CI4Dyam863P--20" value="" style="endArrow=none;html=1;rounded=0;strokeWidth=4;strokeColor=#B3B3B3;" parent="1" edge="1">
          <mxGeometry width="50" height="50" relative="1" as="geometry">
            <mxPoint x="2" y="122" as="sourcePoint" />
            <mxPoint x="122" y="122" as="targetPoint" />
          </mxGeometry>
        </mxCell>
        <mxCell id="Ov3hjR12CI4Dyam863P--21" value="" style="endArrow=none;html=1;rounded=0;strokeWidth=4;strokeColor=#B3B3B3;" parent="1" edge="1">
          <mxGeometry width="50" height="50" relative="1" as="geometry">
            <mxPoint x="120" y="120" as="sourcePoint" />
            <mxPoint x="120" y="160" as="targetPoint" />
          </mxGeometry>
        </mxCell>
        <mxCell id="Ov3hjR12CI4Dyam863P--25" value="" style="endArrow=none;html=1;rounded=0;" parent="1" edge="1">
          <mxGeometry width="50" height="50" relative="1" as="geometry">
            <mxPoint x="82" y="160" as="sourcePoint" />
            <mxPoint x="242" y="160" as="targetPoint" />
          </mxGeometry>
        </mxCell>
        <mxCell id="Ov3hjR12CI4Dyam863P--27" value="" style="endArrow=none;html=1;rounded=0;strokeWidth=4;strokeColor=#CCCCCC;" parent="1" edge="1">
          <mxGeometry width="50" height="50" relative="1" as="geometry">
            <mxPoint x="282" y="122" as="sourcePoint" />
            <mxPoint x="162" y="122" as="targetPoint" />
          </mxGeometry>
        </mxCell>
        <mxCell id="Ov3hjR12CI4Dyam863P--28" value="" style="shape=partialRectangle;whiteSpace=wrap;html=1;right=0;top=0;bottom=0;fillColor=none;routingCenterX=-0.5;" parent="1" vertex="1">
          <mxGeometry x="92" y="160" width="120" height="40" as="geometry" />
        </mxCell>
        <mxCell id="Ov3hjR12CI4Dyam863P--29" value="" style="shape=partialRectangle;whiteSpace=wrap;html=1;right=0;top=0;bottom=0;fillColor=none;routingCenterX=-0.5;" parent="1" vertex="1">
          <mxGeometry x="102" y="160" width="120" height="40" as="geometry" />
        </mxCell>
        <mxCell id="Ov3hjR12CI4Dyam863P--30" value="" style="shape=partialRectangle;whiteSpace=wrap;html=1;right=0;top=0;bottom=0;fillColor=none;routingCenterX=-0.5;" parent="1" vertex="1">
          <mxGeometry x="112" y="160" width="120" height="40" as="geometry" />
        </mxCell>
        <mxCell id="Ov3hjR12CI4Dyam863P--31" value="" style="shape=partialRectangle;whiteSpace=wrap;html=1;right=0;top=0;bottom=0;fillColor=none;routingCenterX=-0.5;" parent="1" vertex="1">
          <mxGeometry x="122" y="160" width="120" height="40" as="geometry" />
        </mxCell>
        <mxCell id="Ov3hjR12CI4Dyam863P--32" value="" style="shape=partialRectangle;whiteSpace=wrap;html=1;right=0;top=0;bottom=0;fillColor=none;routingCenterX=-0.5;" parent="1" vertex="1">
          <mxGeometry x="132" y="160" width="120" height="40" as="geometry" />
        </mxCell>
        <mxCell id="Ov3hjR12CI4Dyam863P--33" value="" style="shape=partialRectangle;whiteSpace=wrap;html=1;right=0;top=0;bottom=0;fillColor=none;routingCenterX=-0.5;" parent="1" vertex="1">
          <mxGeometry x="142" y="160" width="120" height="40" as="geometry" />
        </mxCell>
        <mxCell id="Ov3hjR12CI4Dyam863P--34" value="" style="shape=partialRectangle;whiteSpace=wrap;html=1;right=0;top=0;bottom=0;fillColor=none;routingCenterX=-0.5;" parent="1" vertex="1">
          <mxGeometry x="152" y="160" width="120" height="40" as="geometry" />
        </mxCell>
        <mxCell id="Ov3hjR12CI4Dyam863P--35" value="" style="shape=partialRectangle;whiteSpace=wrap;html=1;right=0;top=0;bottom=0;fillColor=none;routingCenterX=-0.5;" parent="1" vertex="1">
          <mxGeometry x="162" y="160" width="120" height="40" as="geometry" />
        </mxCell>
        <mxCell id="Ov3hjR12CI4Dyam863P--36" value="" style="shape=partialRectangle;whiteSpace=wrap;html=1;right=0;top=0;bottom=0;fillColor=none;routingCenterX=-0.5;" parent="1" vertex="1">
          <mxGeometry x="172" y="160" width="120" height="40" as="geometry" />
        </mxCell>
        <mxCell id="Ov3hjR12CI4Dyam863P--37" value="" style="shape=partialRectangle;whiteSpace=wrap;html=1;right=0;top=0;bottom=0;fillColor=none;routingCenterX=-0.5;" parent="1" vertex="1">
          <mxGeometry x="182" y="160" width="120" height="40" as="geometry" />
        </mxCell>
        <mxCell id="Ov3hjR12CI4Dyam863P--38" value="" style="shape=partialRectangle;whiteSpace=wrap;html=1;right=0;top=0;bottom=0;fillColor=none;routingCenterX=-0.5;" parent="1" vertex="1">
          <mxGeometry x="192" y="160" width="120" height="40" as="geometry" />
        </mxCell>
        <mxCell id="Ov3hjR12CI4Dyam863P--39" value="" style="shape=partialRectangle;whiteSpace=wrap;html=1;right=0;top=0;bottom=0;fillColor=none;routingCenterX=-0.5;" parent="1" vertex="1">
          <mxGeometry x="202" y="160" width="120" height="40" as="geometry" />
        </mxCell>
        <mxCell id="Ov3hjR12CI4Dyam863P--40" value="" style="shape=partialRectangle;whiteSpace=wrap;html=1;right=0;top=0;bottom=0;fillColor=none;routingCenterX=-0.5;" parent="1" vertex="1">
          <mxGeometry x="212" y="160" width="120" height="40" as="geometry" />
        </mxCell>
        <mxCell id="Ov3hjR12CI4Dyam863P--41" value="" style="shape=partialRectangle;whiteSpace=wrap;html=1;right=0;top=0;bottom=0;fillColor=none;routingCenterX=-0.5;" parent="1" vertex="1">
          <mxGeometry x="222" y="160" width="120" height="40" as="geometry" />
        </mxCell>
        <mxCell id="Ov3hjR12CI4Dyam863P--42" value="" style="shape=partialRectangle;whiteSpace=wrap;html=1;right=0;top=0;bottom=0;fillColor=none;routingCenterX=-0.5;" parent="1" vertex="1">
          <mxGeometry x="232" y="160" width="120" height="40" as="geometry" />
        </mxCell>
        <mxCell id="Ov3hjR12CI4Dyam863P--43" value="" style="shape=partialRectangle;whiteSpace=wrap;html=1;right=0;top=0;bottom=0;fillColor=none;routingCenterX=-0.5;" parent="1" vertex="1">
          <mxGeometry x="242" y="160" width="120" height="40" as="geometry" />
        </mxCell>
        <mxCell id="Ov3hjR12CI4Dyam863P--52" value="" style="verticalLabelPosition=bottom;html=1;verticalAlign=top;align=center;shape=mxgraph.floorplan.doorLeft;aspect=fixed;direction=west;rotation=-90;" parent="1" vertex="1">
          <mxGeometry x="43" y="359" width="40" height="42.5" as="geometry" />
        </mxCell>
        <mxCell id="Ov3hjR12CI4Dyam863P--53" value="" style="endArrow=none;html=1;rounded=0;strokeWidth=4;strokeColor=#0e8088;fillColor=#b0e3e6;" parent="1" edge="1">
          <mxGeometry width="50" height="50" relative="1" as="geometry">
            <mxPoint x="2" y="40" as="sourcePoint" />
            <mxPoint x="2" y="121" as="targetPoint" />
          </mxGeometry>
        </mxCell>
        <mxCell id="Ov3hjR12CI4Dyam863P--54" value="" style="endArrow=none;html=1;rounded=0;strokeWidth=4;strokeColor=#0e8088;fillColor=#b0e3e6;" parent="1" edge="1">
          <mxGeometry width="50" height="50" relative="1" as="geometry">
            <mxPoint x="644" y="40" as="sourcePoint" />
            <mxPoint y="40" as="targetPoint" />
          </mxGeometry>
        </mxCell>
        <mxCell id="Ov3hjR12CI4Dyam863P--55" value="" style="endArrow=none;html=1;rounded=0;strokeWidth=4;strokeColor=#0e8088;fillColor=#b0e3e6;" parent="1" edge="1">
          <mxGeometry width="50" height="50" relative="1" as="geometry">
            <mxPoint x="2" y="440" as="sourcePoint" />
            <mxPoint x="2" y="600" as="targetPoint" />
          </mxGeometry>
        </mxCell>
        <mxCell id="Ov3hjR12CI4Dyam863P--56" value="" style="endArrow=none;html=1;rounded=0;strokeWidth=4;strokeColor=#0e8088;fillColor=#b0e3e6;" parent="1" edge="1">
          <mxGeometry width="50" height="50" relative="1" as="geometry">
            <mxPoint x="482" y="600" as="sourcePoint" />
            <mxPoint y="600" as="targetPoint" />
          </mxGeometry>
        </mxCell>
        <mxCell id="Ov3hjR12CI4Dyam863P--57" value="" style="endArrow=none;html=1;rounded=0;strokeWidth=4;" parent="1" source="Ov3hjR12CI4Dyam863P--70" edge="1">
          <mxGeometry width="50" height="50" relative="1" as="geometry">
            <mxPoint x="482" y="602" as="sourcePoint" />
            <mxPoint x="482" y="480" as="targetPoint" />
          </mxGeometry>
        </mxCell>
        <mxCell id="Ov3hjR12CI4Dyam863P--58" value="" style="endArrow=none;html=1;rounded=0;strokeWidth=4;" parent="1" edge="1">
          <mxGeometry width="50" height="50" relative="1" as="geometry">
            <mxPoint x="602" y="482.25" as="sourcePoint" />
            <mxPoint x="642" y="482" as="targetPoint" />
          </mxGeometry>
        </mxCell>
        <mxCell id="Ov3hjR12CI4Dyam863P--59" value="" style="endArrow=none;html=1;rounded=0;strokeWidth=4;" parent="1" edge="1">
          <mxGeometry width="50" height="50" relative="1" as="geometry">
            <mxPoint x="642" y="602" as="sourcePoint" />
            <mxPoint x="642" y="480" as="targetPoint" />
          </mxGeometry>
        </mxCell>
        <mxCell id="Ov3hjR12CI4Dyam863P--60" value="" style="endArrow=none;html=1;rounded=0;strokeWidth=4;" parent="1" edge="1">
          <mxGeometry width="50" height="50" relative="1" as="geometry">
            <mxPoint x="482" y="600" as="sourcePoint" />
            <mxPoint x="642" y="600" as="targetPoint" />
          </mxGeometry>
        </mxCell>
        <mxCell id="Ov3hjR12CI4Dyam863P--61" value="" style="endArrow=none;html=1;rounded=0;strokeWidth=4;strokeColor=#0e8088;fillColor=#b0e3e6;" parent="1" edge="1">
          <mxGeometry width="50" height="50" relative="1" as="geometry">
            <mxPoint x="642" y="40" as="sourcePoint" />
            <mxPoint x="642" y="480" as="targetPoint" />
          </mxGeometry>
        </mxCell>
        <mxCell id="Ov3hjR12CI4Dyam863P--62" value="" style="rounded=0;whiteSpace=wrap;html=1;rotation=-180;strokeColor=#b3b3b3;" parent="1" vertex="1">
          <mxGeometry x="522" y="518.88" width="40" height="5" as="geometry" />
        </mxCell>
        <mxCell id="Ov3hjR12CI4Dyam863P--66" value="" style="endArrow=none;html=1;rounded=0;strokeWidth=4;" parent="1" edge="1">
          <mxGeometry width="50" height="50" relative="1" as="geometry">
            <mxPoint x="482" y="482" as="sourcePoint" />
            <mxPoint x="522" y="482.25" as="targetPoint" />
          </mxGeometry>
        </mxCell>
        <mxCell id="Ov3hjR12CI4Dyam863P--67" value="" style="rounded=0;whiteSpace=wrap;html=1;" parent="1" vertex="1">
          <mxGeometry x="522" y="480" width="80" height="4" as="geometry" />
        </mxCell>
        <mxCell id="Ov3hjR12CI4Dyam863P--68" value="" style="rounded=0;whiteSpace=wrap;html=1;" parent="1" vertex="1">
          <mxGeometry x="522" y="597.5" width="80" height="4" as="geometry" />
        </mxCell>
        <mxCell id="Ov3hjR12CI4Dyam863P--69" value="" style="rounded=0;whiteSpace=wrap;html=1;rotation=90;" parent="1" vertex="1">
          <mxGeometry x="621.38" y="538.13" width="41.25" height="4" as="geometry" />
        </mxCell>
        <mxCell id="Ov3hjR12CI4Dyam863P--71" value="" style="endArrow=none;html=1;rounded=0;strokeWidth=4;" parent="1" target="Ov3hjR12CI4Dyam863P--70" edge="1">
          <mxGeometry width="50" height="50" relative="1" as="geometry">
            <mxPoint x="482" y="602" as="sourcePoint" />
            <mxPoint x="482" y="480" as="targetPoint" />
          </mxGeometry>
        </mxCell>
        <mxCell id="Ov3hjR12CI4Dyam863P--70" value="" style="rounded=0;whiteSpace=wrap;html=1;rotation=90;" parent="1" vertex="1">
          <mxGeometry x="461" y="538.13" width="41.25" height="4" as="geometry" />
        </mxCell>
        <mxCell id="Ov3hjR12CI4Dyam863P--72" value="" style="rounded=0;whiteSpace=wrap;html=1;" parent="1" vertex="1">
          <mxGeometry x="122" y="438" width="80" height="4" as="geometry" />
        </mxCell>
        <mxCell id="Ov3hjR12CI4Dyam863P--74" value="" style="rounded=0;whiteSpace=wrap;html=1;" parent="1" vertex="1">
          <mxGeometry x="282" y="438" width="80" height="4" as="geometry" />
        </mxCell>
        <mxCell id="Ov3hjR12CI4Dyam863P--75" value="" style="rounded=0;whiteSpace=wrap;html=1;" parent="1" vertex="1">
          <mxGeometry x="282" y="198" width="80" height="4" as="geometry" />
        </mxCell>
        <mxCell id="Ov3hjR12CI4Dyam863P--76" value="" style="rounded=0;whiteSpace=wrap;html=1;rotation=90;" parent="1" vertex="1">
          <mxGeometry x="362" y="278" width="80" height="4" as="geometry" />
        </mxCell>
        <mxCell id="Ov3hjR12CI4Dyam863P--77" value="" style="verticalLabelPosition=bottom;html=1;verticalAlign=top;align=center;shape=mxgraph.floorplan.doorUneven;dx=0.5;" parent="1" vertex="1">
          <mxGeometry x="481.63" y="38" width="80.37" height="40" as="geometry" />
        </mxCell>
        <mxCell id="Ov3hjR12CI4Dyam863P--89" value="" style="endArrow=none;html=1;rounded=0;strokeWidth=4;jumpStyle=none;" parent="1" edge="1">
          <mxGeometry width="50" height="50" relative="1" as="geometry">
            <mxPoint x="920" y="440" as="sourcePoint" />
            <mxPoint x="921" y="200" as="targetPoint" />
          </mxGeometry>
        </mxCell>
        <mxCell id="Ov3hjR12CI4Dyam863P--90" value="" style="endArrow=none;html=1;rounded=0;strokeWidth=4;" parent="1" edge="1">
          <mxGeometry width="50" height="50" relative="1" as="geometry">
            <mxPoint x="919" y="440" as="sourcePoint" />
            <mxPoint x="960" y="440" as="targetPoint" />
          </mxGeometry>
        </mxCell>
        <mxCell id="Ov3hjR12CI4Dyam863P--91" value="" style="endArrow=none;html=1;rounded=0;strokeWidth=4;" parent="1" edge="1">
          <mxGeometry width="50" height="50" relative="1" as="geometry">
            <mxPoint x="1241" y="440" as="sourcePoint" />
            <mxPoint x="1241" y="200" as="targetPoint" />
          </mxGeometry>
        </mxCell>
        <mxCell id="Ov3hjR12CI4Dyam863P--92" value="" style="endArrow=none;html=1;rounded=0;strokeWidth=4;jumpStyle=none;" parent="1" edge="1">
          <mxGeometry width="50" height="50" relative="1" as="geometry">
            <mxPoint x="1000" y="200" as="sourcePoint" />
            <mxPoint x="1100" y="200" as="targetPoint" />
          </mxGeometry>
        </mxCell>
        <mxCell id="Ov3hjR12CI4Dyam863P--93" value="" style="ellipse;whiteSpace=wrap;html=1;aspect=fixed;fillColor=#fa6800;fontColor=#000000;strokeColor=#000000;" parent="1" vertex="1">
          <mxGeometry x="1000" y="335" width="24" height="24" as="geometry" />
        </mxCell>
        <mxCell id="Ov3hjR12CI4Dyam863P--118" value="" style="endArrow=none;html=1;rounded=0;strokeWidth=4;strokeColor=#0e8088;fillColor=#b0e3e6;" parent="1" edge="1">
          <mxGeometry width="50" height="50" relative="1" as="geometry">
            <mxPoint x="841" y="40" as="sourcePoint" />
            <mxPoint x="841" y="121" as="targetPoint" />
          </mxGeometry>
        </mxCell>
        <mxCell id="Ov3hjR12CI4Dyam863P--119" value="" style="endArrow=none;html=1;rounded=0;strokeWidth=4;strokeColor=#0e8088;fillColor=#b0e3e6;" parent="1" edge="1">
          <mxGeometry width="50" height="50" relative="1" as="geometry">
            <mxPoint x="1483" y="40" as="sourcePoint" />
            <mxPoint x="839" y="40" as="targetPoint" />
          </mxGeometry>
        </mxCell>
        <mxCell id="Ov3hjR12CI4Dyam863P--120" value="" style="endArrow=none;html=1;rounded=0;strokeWidth=4;strokeColor=#0e8088;fillColor=#b0e3e6;" parent="1" edge="1">
          <mxGeometry width="50" height="50" relative="1" as="geometry">
            <mxPoint x="841" y="110" as="sourcePoint" />
            <mxPoint x="841" y="600" as="targetPoint" />
          </mxGeometry>
        </mxCell>
        <mxCell id="Ov3hjR12CI4Dyam863P--121" value="" style="endArrow=none;html=1;rounded=0;strokeWidth=4;strokeColor=#0e8088;fillColor=#b0e3e6;" parent="1" edge="1">
          <mxGeometry width="50" height="50" relative="1" as="geometry">
            <mxPoint x="1321" y="600" as="sourcePoint" />
            <mxPoint x="839" y="600" as="targetPoint" />
          </mxGeometry>
        </mxCell>
        <mxCell id="Ov3hjR12CI4Dyam863P--122" value="" style="endArrow=none;html=1;rounded=0;strokeWidth=4;" parent="1" edge="1">
          <mxGeometry width="50" height="50" relative="1" as="geometry">
            <mxPoint x="1320.75362755696" y="519.5050000000001" as="sourcePoint" />
            <mxPoint x="1321" y="480" as="targetPoint" />
          </mxGeometry>
        </mxCell>
        <mxCell id="Ov3hjR12CI4Dyam863P--123" value="" style="endArrow=none;html=1;rounded=0;strokeWidth=4;" parent="1" edge="1">
          <mxGeometry width="50" height="50" relative="1" as="geometry">
            <mxPoint x="1441" y="482.25" as="sourcePoint" />
            <mxPoint x="1481" y="482" as="targetPoint" />
          </mxGeometry>
        </mxCell>
        <mxCell id="Ov3hjR12CI4Dyam863P--124" value="" style="endArrow=none;html=1;rounded=0;strokeWidth=4;" parent="1" edge="1">
          <mxGeometry width="50" height="50" relative="1" as="geometry">
            <mxPoint x="1481" y="602" as="sourcePoint" />
            <mxPoint x="1481" y="480" as="targetPoint" />
          </mxGeometry>
        </mxCell>
        <mxCell id="Ov3hjR12CI4Dyam863P--125" value="" style="endArrow=none;html=1;rounded=0;strokeWidth=4;" parent="1" edge="1">
          <mxGeometry width="50" height="50" relative="1" as="geometry">
            <mxPoint x="1321" y="600" as="sourcePoint" />
            <mxPoint x="1481" y="600" as="targetPoint" />
          </mxGeometry>
        </mxCell>
        <mxCell id="Ov3hjR12CI4Dyam863P--126" value="" style="endArrow=none;html=1;rounded=0;strokeWidth=4;strokeColor=#0e8088;fillColor=#b0e3e6;" parent="1" edge="1">
          <mxGeometry width="50" height="50" relative="1" as="geometry">
            <mxPoint x="1481" y="40" as="sourcePoint" />
            <mxPoint x="1481" y="480" as="targetPoint" />
          </mxGeometry>
        </mxCell>
        <mxCell id="Ov3hjR12CI4Dyam863P--128" value="" style="endArrow=none;html=1;rounded=0;strokeWidth=4;" parent="1" edge="1">
          <mxGeometry width="50" height="50" relative="1" as="geometry">
            <mxPoint x="1321" y="482" as="sourcePoint" />
            <mxPoint x="1361" y="482.25" as="targetPoint" />
          </mxGeometry>
        </mxCell>
        <mxCell id="Ov3hjR12CI4Dyam863P--132" value="" style="endArrow=none;html=1;rounded=0;strokeWidth=4;" parent="1" edge="1">
          <mxGeometry width="50" height="50" relative="1" as="geometry">
            <mxPoint x="1321" y="602" as="sourcePoint" />
            <mxPoint x="1320.7500101018268" y="560.7550000000001" as="targetPoint" />
          </mxGeometry>
        </mxCell>
        <mxCell id="Ov3hjR12CI4Dyam863P--137" value="" style="rounded=0;whiteSpace=wrap;html=1;rotation=90;" parent="1" vertex="1">
          <mxGeometry x="1201" y="278" width="80" height="4" as="geometry" />
        </mxCell>
        <mxCell id="Ov3hjR12CI4Dyam863P--138" value="" style="verticalLabelPosition=bottom;html=1;verticalAlign=top;align=center;shape=mxgraph.floorplan.doorUneven;dx=0.5;" parent="1" vertex="1">
          <mxGeometry x="1320.63" y="38" width="80.37" height="40" as="geometry" />
        </mxCell>
        <mxCell id="Ov3hjR12CI4Dyam863P--140" value="" style="endArrow=none;html=1;rounded=0;strokeWidth=4;" parent="1" edge="1">
          <mxGeometry width="50" height="50" relative="1" as="geometry">
            <mxPoint x="1060" y="439.66" as="sourcePoint" />
            <mxPoint x="1101" y="439.66" as="targetPoint" />
          </mxGeometry>
        </mxCell>
        <mxCell id="Ov3hjR12CI4Dyam863P--141" value="" style="endArrow=none;html=1;rounded=0;strokeWidth=4;" parent="1" edge="1">
          <mxGeometry width="50" height="50" relative="1" as="geometry">
            <mxPoint x="1199" y="440" as="sourcePoint" />
            <mxPoint x="1243" y="440" as="targetPoint" />
          </mxGeometry>
        </mxCell>
        <mxCell id="Ov3hjR12CI4Dyam863P--142" value="" style="endArrow=none;html=1;rounded=0;strokeWidth=4;" parent="1" edge="1">
          <mxGeometry width="50" height="50" relative="1" as="geometry">
            <mxPoint x="1199" y="199.31" as="sourcePoint" />
            <mxPoint x="1243" y="199.31" as="targetPoint" />
          </mxGeometry>
        </mxCell>
        <mxCell id="Ov3hjR12CI4Dyam863P--146" value="" style="verticalLabelPosition=bottom;html=1;verticalAlign=top;align=center;shape=mxgraph.floorplan.chair;rotation=-180;" parent="1" vertex="1">
          <mxGeometry x="332" y="220" width="27" height="34.24" as="geometry" />
        </mxCell>
        <mxCell id="Ov3hjR12CI4Dyam863P--149" value="" style="verticalLabelPosition=bottom;html=1;verticalAlign=top;align=center;shape=mxgraph.floorplan.couch;rotation=-15;" parent="1" vertex="1">
          <mxGeometry x="86.5" y="212.24" width="75" height="40" as="geometry" />
        </mxCell>
        <mxCell id="Ov3hjR12CI4Dyam863P--150" value="" style="whiteSpace=wrap;html=1;aspect=fixed;fillColor=#000000;" parent="1" vertex="1">
          <mxGeometry x="235" y="316" width="8" height="8" as="geometry" />
        </mxCell>
        <mxCell id="Ov3hjR12CI4Dyam863P--151" value="" style="whiteSpace=wrap;html=1;aspect=fixed;fillColor=#000000;" parent="1" vertex="1">
          <mxGeometry x="1076" y="316" width="8" height="8" as="geometry" />
        </mxCell>
        <mxCell id="Ov3hjR12CI4Dyam863P--152" value="" style="verticalLabelPosition=bottom;html=1;verticalAlign=top;align=center;shape=mxgraph.floorplan.table;" parent="1" vertex="1">
          <mxGeometry x="162" y="326" width="75.78" height="42" as="geometry" />
        </mxCell>
        <mxCell id="Ov3hjR12CI4Dyam863P--154" value="" style="rounded=0;whiteSpace=wrap;html=1;" parent="1" vertex="1">
          <mxGeometry x="83" y="270" width="27" height="78" as="geometry" />
        </mxCell>
        <mxCell id="Ov3hjR12CI4Dyam863P--155" value="" style="rounded=0;whiteSpace=wrap;html=1;rotation=90;" parent="1" vertex="1">
          <mxGeometry x="227.25" y="383.75" width="27" height="82.5" as="geometry" />
        </mxCell>
        <mxCell id="Ov3hjR12CI4Dyam863P--156" value="" style="rounded=0;whiteSpace=wrap;html=1;rotation=90;" parent="1" vertex="1">
          <mxGeometry x="212" y="175.88" width="27" height="81.36" as="geometry" />
        </mxCell>
        <mxCell id="Ov3hjR12CI4Dyam863P--157" value="" style="verticalLabelPosition=bottom;html=1;verticalAlign=top;align=center;shape=mxgraph.floorplan.couch;rotation=-180;" parent="1" vertex="1">
          <mxGeometry x="182" y="278" width="75" height="40" as="geometry" />
        </mxCell>
        <mxCell id="Ov3hjR12CI4Dyam863P--159" value="" style="verticalLabelPosition=bottom;html=1;verticalAlign=top;align=center;shape=mxgraph.floorplan.table;rotation=90;" parent="1" vertex="1">
          <mxGeometry x="342" y="359" width="75.78" height="42" as="geometry" />
        </mxCell>
        <mxCell id="Ov3hjR12CI4Dyam863P--160" value="" style="verticalLabelPosition=bottom;html=1;verticalAlign=top;align=center;shape=mxgraph.floorplan.chair;rotation=-95;" parent="1" vertex="1">
          <mxGeometry x="315" y="345.63" width="27" height="34.24" as="geometry" />
        </mxCell>
        <mxCell id="Ov3hjR12CI4Dyam863P--161" value="" style="endArrow=none;html=1;rounded=0;strokeWidth=4;" parent="1" edge="1">
          <mxGeometry width="50" height="50" relative="1" as="geometry">
            <mxPoint x="919" y="200" as="sourcePoint" />
            <mxPoint x="960" y="200" as="targetPoint" />
          </mxGeometry>
        </mxCell>
        <mxCell id="Ov3hjR12CI4Dyam863P--164" value="" style="endArrow=none;html=1;rounded=0;strokeWidth=4;jumpStyle=none;entryX=0.5;entryY=0;entryDx=0;entryDy=0;" parent="1" target="Ov3hjR12CI4Dyam863P--151" edge="1">
          <mxGeometry width="50" height="50" relative="1" as="geometry">
            <mxPoint x="1080" y="200" as="sourcePoint" />
            <mxPoint x="1100" y="131" as="targetPoint" />
          </mxGeometry>
        </mxCell>
        <mxCell id="Ov3hjR12CI4Dyam863P--165" value="" style="endArrow=none;html=1;rounded=0;strokeWidth=4;jumpStyle=none;entryX=0.5;entryY=0;entryDx=0;entryDy=0;" parent="1" edge="1">
          <mxGeometry width="50" height="50" relative="1" as="geometry">
            <mxPoint x="1080" y="400" as="sourcePoint" />
            <mxPoint x="1079.63" y="439" as="targetPoint" />
          </mxGeometry>
        </mxCell>
        <mxCell id="Ov3hjR12CI4Dyam863P--168" value="" style="verticalLabelPosition=bottom;html=1;verticalAlign=top;align=center;shape=mxgraph.floorplan.table;rotation=-180;" parent="1" vertex="1">
          <mxGeometry x="960" y="259" width="75.78" height="42" as="geometry" />
        </mxCell>
        <mxCell id="Ov3hjR12CI4Dyam863P--169" value="" style="rounded=0;whiteSpace=wrap;html=1;" parent="1" vertex="1">
          <mxGeometry x="922" y="360" width="27" height="78" as="geometry" />
        </mxCell>
        <mxCell id="Ov3hjR12CI4Dyam863P--170" value="" style="rounded=0;whiteSpace=wrap;html=1;rotation=90;" parent="1" vertex="1">
          <mxGeometry x="1110" y="270" width="27" height="78" as="geometry" />
        </mxCell>
        <mxCell id="Ov3hjR12CI4Dyam863P--171" value="" style="rounded=0;whiteSpace=wrap;html=1;rotation=-180;" parent="1" vertex="1">
          <mxGeometry x="1451" y="519.5" width="27" height="78" as="geometry" />
        </mxCell>
        <mxCell id="Ov3hjR12CI4Dyam863P--172" value="" style="verticalLabelPosition=bottom;html=1;verticalAlign=top;align=center;shape=mxgraph.floorplan.chair;rotation=15;" parent="1" vertex="1">
          <mxGeometry x="1049" y="202" width="27" height="34.24" as="geometry" />
        </mxCell>
        <mxCell id="Ov3hjR12CI4Dyam863P--173" value="" style="rounded=0;whiteSpace=wrap;html=1;rotation=-180;" parent="1" vertex="1">
          <mxGeometry x="1223" y="370" width="27" height="78" as="geometry" />
        </mxCell>
        <mxCell id="Ov3hjR12CI4Dyam863P--174" value="NewShelter" style="text;strokeColor=none;align=center;fillColor=none;html=1;verticalAlign=middle;whiteSpace=wrap;rounded=0;fontSize=24;" parent="1" vertex="1">
          <mxGeometry x="33" y="775" width="60" height="30" as="geometry" />
        </mxCell>
        <mxCell id="u_MexKkUD5SQfgYGNneM-5" value="" style="verticalLabelPosition=bottom;verticalAlign=top;html=1;shape=mxgraph.basic.rect;fillColor2=none;strokeWidth=1;size=20;indent=5;" parent="1" vertex="1">
          <mxGeometry x="561" y="-638" width="160" height="121.5" as="geometry" />
        </mxCell>
        <mxCell id="u_MexKkUD5SQfgYGNneM-6" value="" style="verticalLabelPosition=bottom;verticalAlign=top;html=1;shape=mxgraph.basic.rect;fillColor2=none;strokeWidth=1;size=20;indent=5;" parent="1" vertex="1">
          <mxGeometry x="161" y="-919" width="320" height="242.5" as="geometry" />
        </mxCell>
        <mxCell id="u_MexKkUD5SQfgYGNneM-7" value="" style="endArrow=none;html=1;rounded=0;strokeWidth=4;jumpStyle=none;" parent="1" edge="1">
          <mxGeometry width="50" height="50" relative="1" as="geometry">
            <mxPoint x="161" y="-678" as="sourcePoint" />
            <mxPoint x="162" y="-918" as="targetPoint" />
          </mxGeometry>
        </mxCell>
        <mxCell id="u_MexKkUD5SQfgYGNneM-8" value="" style="endArrow=none;html=1;rounded=0;strokeWidth=4;" parent="1" edge="1">
          <mxGeometry width="50" height="50" relative="1" as="geometry">
            <mxPoint x="160" y="-678" as="sourcePoint" />
            <mxPoint x="201" y="-678" as="targetPoint" />
          </mxGeometry>
        </mxCell>
        <mxCell id="u_MexKkUD5SQfgYGNneM-9" value="" style="endArrow=none;html=1;rounded=0;strokeWidth=4;" parent="1" edge="1">
          <mxGeometry width="50" height="50" relative="1" as="geometry">
            <mxPoint x="482" y="-678" as="sourcePoint" />
            <mxPoint x="482" y="-918" as="targetPoint" />
          </mxGeometry>
        </mxCell>
        <mxCell id="u_MexKkUD5SQfgYGNneM-10" value="" style="endArrow=none;html=1;rounded=0;strokeWidth=4;jumpStyle=none;" parent="1" edge="1">
          <mxGeometry width="50" height="50" relative="1" as="geometry">
            <mxPoint x="241" y="-918" as="sourcePoint" />
            <mxPoint x="341" y="-918" as="targetPoint" />
          </mxGeometry>
        </mxCell>
        <mxCell id="u_MexKkUD5SQfgYGNneM-11" value="" style="ellipse;whiteSpace=wrap;html=1;aspect=fixed;fillColor=#fa6800;fontColor=#000000;strokeColor=#000000;" parent="1" vertex="1">
          <mxGeometry x="241" y="-783" width="24" height="24" as="geometry" />
        </mxCell>
        <mxCell id="u_MexKkUD5SQfgYGNneM-12" value="" style="endArrow=none;html=1;rounded=0;strokeWidth=4;strokeColor=#0e8088;fillColor=#b0e3e6;" parent="1" edge="1">
          <mxGeometry width="50" height="50" relative="1" as="geometry">
            <mxPoint x="82" y="-1078" as="sourcePoint" />
            <mxPoint x="82" y="-997" as="targetPoint" />
          </mxGeometry>
        </mxCell>
        <mxCell id="u_MexKkUD5SQfgYGNneM-13" value="" style="endArrow=none;html=1;rounded=0;strokeWidth=4;strokeColor=#0e8088;fillColor=#b0e3e6;" parent="1" edge="1">
          <mxGeometry width="50" height="50" relative="1" as="geometry">
            <mxPoint x="724" y="-1078" as="sourcePoint" />
            <mxPoint x="80" y="-1078" as="targetPoint" />
          </mxGeometry>
        </mxCell>
        <mxCell id="u_MexKkUD5SQfgYGNneM-14" value="" style="endArrow=none;html=1;rounded=0;strokeWidth=4;strokeColor=#0e8088;fillColor=#b0e3e6;" parent="1" edge="1">
          <mxGeometry width="50" height="50" relative="1" as="geometry">
            <mxPoint x="82" y="-1008" as="sourcePoint" />
            <mxPoint x="82" y="-518" as="targetPoint" />
          </mxGeometry>
        </mxCell>
        <mxCell id="u_MexKkUD5SQfgYGNneM-15" value="" style="endArrow=none;html=1;rounded=0;strokeWidth=4;strokeColor=#0e8088;fillColor=#b0e3e6;" parent="1" edge="1">
          <mxGeometry width="50" height="50" relative="1" as="geometry">
            <mxPoint x="562" y="-518" as="sourcePoint" />
            <mxPoint x="80" y="-518" as="targetPoint" />
          </mxGeometry>
        </mxCell>
        <mxCell id="u_MexKkUD5SQfgYGNneM-16" value="" style="endArrow=none;html=1;rounded=0;strokeWidth=4;" parent="1" edge="1">
          <mxGeometry width="50" height="50" relative="1" as="geometry">
            <mxPoint x="561.75362755696" y="-598.4949999999999" as="sourcePoint" />
            <mxPoint x="562" y="-638" as="targetPoint" />
          </mxGeometry>
        </mxCell>
        <mxCell id="u_MexKkUD5SQfgYGNneM-17" value="" style="endArrow=none;html=1;rounded=0;strokeWidth=4;" parent="1" edge="1">
          <mxGeometry width="50" height="50" relative="1" as="geometry">
            <mxPoint x="682" y="-635.75" as="sourcePoint" />
            <mxPoint x="722" y="-636" as="targetPoint" />
          </mxGeometry>
        </mxCell>
        <mxCell id="u_MexKkUD5SQfgYGNneM-18" value="" style="endArrow=none;html=1;rounded=0;strokeWidth=4;" parent="1" edge="1">
          <mxGeometry width="50" height="50" relative="1" as="geometry">
            <mxPoint x="722" y="-516" as="sourcePoint" />
            <mxPoint x="722" y="-638" as="targetPoint" />
          </mxGeometry>
        </mxCell>
        <mxCell id="u_MexKkUD5SQfgYGNneM-19" value="" style="endArrow=none;html=1;rounded=0;strokeWidth=4;" parent="1" edge="1">
          <mxGeometry width="50" height="50" relative="1" as="geometry">
            <mxPoint x="562" y="-518" as="sourcePoint" />
            <mxPoint x="722" y="-518" as="targetPoint" />
          </mxGeometry>
        </mxCell>
        <mxCell id="u_MexKkUD5SQfgYGNneM-20" value="" style="endArrow=none;html=1;rounded=0;strokeWidth=4;strokeColor=#0e8088;fillColor=#b0e3e6;" parent="1" edge="1">
          <mxGeometry width="50" height="50" relative="1" as="geometry">
            <mxPoint x="722" y="-1078" as="sourcePoint" />
            <mxPoint x="722" y="-638" as="targetPoint" />
          </mxGeometry>
        </mxCell>
        <mxCell id="u_MexKkUD5SQfgYGNneM-21" value="" style="endArrow=none;html=1;rounded=0;strokeWidth=4;" parent="1" edge="1">
          <mxGeometry width="50" height="50" relative="1" as="geometry">
            <mxPoint x="562" y="-636" as="sourcePoint" />
            <mxPoint x="602" y="-635.75" as="targetPoint" />
          </mxGeometry>
        </mxCell>
        <mxCell id="u_MexKkUD5SQfgYGNneM-22" value="" style="endArrow=none;html=1;rounded=0;strokeWidth=4;" parent="1" edge="1">
          <mxGeometry width="50" height="50" relative="1" as="geometry">
            <mxPoint x="562" y="-516" as="sourcePoint" />
            <mxPoint x="561.7500101018268" y="-557.2449999999999" as="targetPoint" />
          </mxGeometry>
        </mxCell>
        <mxCell id="u_MexKkUD5SQfgYGNneM-23" value="" style="rounded=0;whiteSpace=wrap;html=1;rotation=90;" parent="1" vertex="1">
          <mxGeometry x="442" y="-840" width="80" height="4" as="geometry" />
        </mxCell>
        <mxCell id="u_MexKkUD5SQfgYGNneM-24" value="" style="verticalLabelPosition=bottom;html=1;verticalAlign=top;align=center;shape=mxgraph.floorplan.doorUneven;dx=0.5;" parent="1" vertex="1">
          <mxGeometry x="561.6300000000001" y="-1080" width="80.37" height="40" as="geometry" />
        </mxCell>
        <mxCell id="u_MexKkUD5SQfgYGNneM-25" value="" style="endArrow=none;html=1;rounded=0;strokeWidth=4;" parent="1" edge="1">
          <mxGeometry width="50" height="50" relative="1" as="geometry">
            <mxPoint x="301" y="-678.3399999999999" as="sourcePoint" />
            <mxPoint x="342" y="-678.3399999999999" as="targetPoint" />
          </mxGeometry>
        </mxCell>
        <mxCell id="u_MexKkUD5SQfgYGNneM-26" value="" style="endArrow=none;html=1;rounded=0;strokeWidth=4;" parent="1" edge="1">
          <mxGeometry width="50" height="50" relative="1" as="geometry">
            <mxPoint x="440" y="-678" as="sourcePoint" />
            <mxPoint x="484" y="-678" as="targetPoint" />
          </mxGeometry>
        </mxCell>
        <mxCell id="u_MexKkUD5SQfgYGNneM-27" value="" style="endArrow=none;html=1;rounded=0;strokeWidth=4;" parent="1" edge="1">
          <mxGeometry width="50" height="50" relative="1" as="geometry">
            <mxPoint x="440" y="-918.69" as="sourcePoint" />
            <mxPoint x="484" y="-918.69" as="targetPoint" />
          </mxGeometry>
        </mxCell>
        <mxCell id="u_MexKkUD5SQfgYGNneM-28" value="" style="whiteSpace=wrap;html=1;aspect=fixed;fillColor=#000000;" parent="1" vertex="1">
          <mxGeometry x="317" y="-802" width="8" height="8" as="geometry" />
        </mxCell>
        <mxCell id="u_MexKkUD5SQfgYGNneM-29" value="" style="endArrow=none;html=1;rounded=0;strokeWidth=4;" parent="1" edge="1">
          <mxGeometry width="50" height="50" relative="1" as="geometry">
            <mxPoint x="160" y="-918" as="sourcePoint" />
            <mxPoint x="201" y="-918" as="targetPoint" />
          </mxGeometry>
        </mxCell>
        <mxCell id="u_MexKkUD5SQfgYGNneM-30" value="" style="endArrow=none;html=1;rounded=0;strokeWidth=4;jumpStyle=none;entryX=0.5;entryY=0;entryDx=0;entryDy=0;" parent="1" target="u_MexKkUD5SQfgYGNneM-28" edge="1">
          <mxGeometry width="50" height="50" relative="1" as="geometry">
            <mxPoint x="321" y="-918" as="sourcePoint" />
            <mxPoint x="341" y="-987" as="targetPoint" />
          </mxGeometry>
        </mxCell>
        <mxCell id="u_MexKkUD5SQfgYGNneM-31" value="" style="endArrow=none;html=1;rounded=0;strokeWidth=4;jumpStyle=none;entryX=0.5;entryY=0;entryDx=0;entryDy=0;" parent="1" edge="1">
          <mxGeometry width="50" height="50" relative="1" as="geometry">
            <mxPoint x="321" y="-718" as="sourcePoint" />
            <mxPoint x="320.6300000000001" y="-679" as="targetPoint" />
          </mxGeometry>
        </mxCell>
        <mxCell id="u_MexKkUD5SQfgYGNneM-32" value="" style="verticalLabelPosition=bottom;html=1;verticalAlign=top;align=center;shape=mxgraph.floorplan.table;rotation=-180;" parent="1" vertex="1">
          <mxGeometry x="201" y="-859" width="75.78" height="42" as="geometry" />
        </mxCell>
        <mxCell id="u_MexKkUD5SQfgYGNneM-33" value="" style="rounded=0;whiteSpace=wrap;html=1;" parent="1" vertex="1">
          <mxGeometry x="163" y="-758" width="27" height="78" as="geometry" />
        </mxCell>
        <mxCell id="u_MexKkUD5SQfgYGNneM-34" value="" style="rounded=0;whiteSpace=wrap;html=1;rotation=90;" parent="1" vertex="1">
          <mxGeometry x="351" y="-848" width="27" height="78" as="geometry" />
        </mxCell>
        <mxCell id="u_MexKkUD5SQfgYGNneM-35" value="" style="rounded=0;whiteSpace=wrap;html=1;rotation=-180;" parent="1" vertex="1">
          <mxGeometry x="692" y="-598.5" width="27" height="78" as="geometry" />
        </mxCell>
        <mxCell id="u_MexKkUD5SQfgYGNneM-36" value="" style="verticalLabelPosition=bottom;html=1;verticalAlign=top;align=center;shape=mxgraph.floorplan.chair;rotation=15;" parent="1" vertex="1">
          <mxGeometry x="290" y="-916" width="27" height="34.24" as="geometry" />
        </mxCell>
        <mxCell id="u_MexKkUD5SQfgYGNneM-37" value="" style="rounded=0;whiteSpace=wrap;html=1;rotation=-180;" parent="1" vertex="1">
          <mxGeometry x="464" y="-748" width="27" height="78" as="geometry" />
        </mxCell>
        <mxCell id="u_MexKkUD5SQfgYGNneM-40" value="" style="rounded=0;whiteSpace=wrap;html=1;" parent="1" vertex="1">
          <mxGeometry x="-3210" y="-1820" width="398" height="155" as="geometry" />
        </mxCell>
        <mxCell id="u_MexKkUD5SQfgYGNneM-47" value="" style="rounded=0;whiteSpace=wrap;html=1;" parent="1" vertex="1">
          <mxGeometry x="750" y="-5040" width="800" height="1200" as="geometry" />
        </mxCell>
        <mxCell id="u_MexKkUD5SQfgYGNneM-50" value="" style="verticalLabelPosition=bottom;verticalAlign=top;html=1;shape=mxgraph.basic.polygon;polyCoords=[[0.25,0],[0.75,0],[1,0.25],[1,0.75],[0.75,1],[0.25,1],[0,0.75],[0,0.25]];polyline=0;fillColor=#f8cecc;strokeColor=#b85450;" parent="1" vertex="1">
          <mxGeometry x="163" y="-4220" width="200" height="200" as="geometry" />
        </mxCell>
        <mxCell id="u_MexKkUD5SQfgYGNneM-39" value="" style="rounded=0;whiteSpace=wrap;html=1;rotation=-90;" parent="1" vertex="1">
          <mxGeometry x="-3580" y="-2630" width="412" height="800" as="geometry" />
        </mxCell>
        <mxCell id="u_MexKkUD5SQfgYGNneM-58" value="" style="endArrow=none;html=1;curved=1;fillColor=#dae8fc;strokeColor=#6c8ebf;strokeWidth=500;movable=0;resizable=0;rotatable=0;deletable=0;editable=0;locked=1;connectable=0;" parent="1" edge="1">
          <mxGeometry width="50" height="50" relative="1" as="geometry">
            <mxPoint x="1230" y="-400" as="sourcePoint" />
            <mxPoint x="-640" y="-4320" as="targetPoint" />
            <Array as="points">
              <mxPoint x="1250" y="-1440" />
              <mxPoint x="610" y="-2310" />
              <mxPoint x="-860" y="-3060" />
            </Array>
          </mxGeometry>
        </mxCell>
        <mxCell id="u_MexKkUD5SQfgYGNneM-59" value="" style="shape=process;whiteSpace=wrap;html=1;backgroundOutline=1;rotation=-10;" parent="1" vertex="1">
          <mxGeometry x="-1830" y="-3500" width="2390" height="240" as="geometry" />
        </mxCell>
        <mxCell id="u_MexKkUD5SQfgYGNneM-69" value="" style="endArrow=none;html=1;rounded=0;strokeWidth=10;" parent="1" edge="1">
          <mxGeometry width="50" height="50" relative="1" as="geometry">
            <mxPoint x="800.5" y="-1230" as="sourcePoint" />
            <mxPoint x="660" y="-1750" as="targetPoint" />
          </mxGeometry>
        </mxCell>
        <mxCell id="u_MexKkUD5SQfgYGNneM-70" value="" style="endArrow=none;html=1;rounded=0;strokeWidth=10;" parent="1" edge="1">
          <mxGeometry width="50" height="50" relative="1" as="geometry">
            <mxPoint x="840" y="-480" as="sourcePoint" />
            <mxPoint x="800" y="-1236.5" as="targetPoint" />
          </mxGeometry>
        </mxCell>
        <mxCell id="u_MexKkUD5SQfgYGNneM-72" value="" style="rounded=0;whiteSpace=wrap;html=1;fillColor=#000000;rotation=-15;" parent="1" vertex="1">
          <mxGeometry x="435.11" y="-1440" width="332" height="158.58" as="geometry" />
        </mxCell>
        <mxCell id="u_MexKkUD5SQfgYGNneM-73" value="" style="rounded=0;whiteSpace=wrap;html=1;fillColor=#000000;rotation=0;" parent="1" vertex="1">
          <mxGeometry x="132" y="-1397.82" width="332" height="158.58" as="geometry" />
        </mxCell>
        <mxCell id="u_MexKkUD5SQfgYGNneM-74" value="" style="rounded=0;whiteSpace=wrap;html=1;fillColor=#000000;rotation=0;" parent="1" vertex="1">
          <mxGeometry x="-634" y="-1080" width="713" height="570" as="geometry" />
        </mxCell>
        <mxCell id="u_MexKkUD5SQfgYGNneM-75" value="" style="endArrow=none;html=1;rounded=0;strokeWidth=10;fillColor=#60a917;strokeColor=#2D7600;" parent="1" edge="1">
          <mxGeometry width="50" height="50" relative="1" as="geometry">
            <mxPoint x="132" y="-1393.2" as="sourcePoint" />
            <mxPoint x="9" y="-1393.42" as="targetPoint" />
          </mxGeometry>
        </mxCell>
        <mxCell id="u_MexKkUD5SQfgYGNneM-76" value="" style="rounded=0;whiteSpace=wrap;html=1;fillColor=#000000;rotation=0;" parent="1" vertex="1">
          <mxGeometry x="-280" y="-1720" width="292" height="330.58" as="geometry" />
        </mxCell>
        <mxCell id="u_MexKkUD5SQfgYGNneM-77" value="" style="rounded=0;whiteSpace=wrap;html=1;fillColor=#000000;rotation=0;" parent="1" vertex="1">
          <mxGeometry x="-634" y="-1720" width="233" height="640" as="geometry" />
        </mxCell>
        <mxCell id="u_MexKkUD5SQfgYGNneM-79" value="" style="rounded=0;whiteSpace=wrap;html=1;fillColor=#000000;rotation=0;" parent="1" vertex="1">
          <mxGeometry x="-200" y="-2040" width="210" height="320" as="geometry" />
        </mxCell>
        <mxCell id="u_MexKkUD5SQfgYGNneM-81" value="" style="ellipse;whiteSpace=wrap;html=1;aspect=fixed;fillColor=#CC0000;fontColor=#000000;strokeColor=#000000;" parent="1" vertex="1">
          <mxGeometry x="-250" y="-1305.4199999999998" width="24" height="24" as="geometry" />
        </mxCell>
        <mxCell id="u_MexKkUD5SQfgYGNneM-84" value="" style="rounded=0;whiteSpace=wrap;html=1;fillColor=#000000;rotation=-30;" parent="1" vertex="1">
          <mxGeometry x="12" y="-1190" width="40" height="80.58" as="geometry" />
        </mxCell>
        <mxCell id="u_MexKkUD5SQfgYGNneM-87" value="" style="rounded=0;whiteSpace=wrap;html=1;rotation=15;fillColor=#000000;" parent="1" vertex="1">
          <mxGeometry x="20" y="-1294.42" width="41" height="80.76" as="geometry" />
        </mxCell>
        <mxCell id="u_MexKkUD5SQfgYGNneM-88" value="" style="ellipse;whiteSpace=wrap;html=1;aspect=fixed;fillColor=#CC0000;fontColor=#000000;strokeColor=#000000;" parent="1" vertex="1">
          <mxGeometry x="-360" y="-1880" width="24" height="24" as="geometry" />
        </mxCell>
        <mxCell id="u_MexKkUD5SQfgYGNneM-89" value="" style="ellipse;whiteSpace=wrap;html=1;aspect=fixed;fillColor=#CC0000;fontColor=#000000;strokeColor=#000000;" parent="1" vertex="1">
          <mxGeometry x="-290" y="-1810" width="24" height="24" as="geometry" />
        </mxCell>
        <mxCell id="u_MexKkUD5SQfgYGNneM-92" value="" style="rounded=0;whiteSpace=wrap;html=1;fillColor=#000000;rotation=0;" parent="1" vertex="1">
          <mxGeometry x="-520" y="-1800" width="40" height="80" as="geometry" />
        </mxCell>
        <mxCell id="u_MexKkUD5SQfgYGNneM-95" value="" style="rounded=0;whiteSpace=wrap;html=1;fillColor=#000000;rotation=30;" parent="1" vertex="1">
          <mxGeometry x="-480" y="-1850" width="40" height="40" as="geometry" />
        </mxCell>
        <mxCell id="u_MexKkUD5SQfgYGNneM-98" value="" style="rounded=0;whiteSpace=wrap;html=1;fillColor=#000000;rotation=0;" parent="1" vertex="1">
          <mxGeometry x="-490" y="-1950" width="40" height="80" as="geometry" />
        </mxCell>
        <mxCell id="u_MexKkUD5SQfgYGNneM-99" value="" style="rounded=0;whiteSpace=wrap;html=1;fillColor=#000000;rotation=0;" parent="1" vertex="1">
          <mxGeometry x="-840" y="-2170" width="850" height="130" as="geometry" />
        </mxCell>
        <mxCell id="u_MexKkUD5SQfgYGNneM-100" value="" style="rounded=0;whiteSpace=wrap;html=1;fillColor=#000000;rotation=0;" parent="1" vertex="1">
          <mxGeometry x="-840" y="-2040" width="120" height="160" as="geometry" />
        </mxCell>
        <mxCell id="u_MexKkUD5SQfgYGNneM-101" value="" style="rounded=0;whiteSpace=wrap;html=1;fillColor=#000000;rotation=0;" parent="1" vertex="1">
          <mxGeometry x="-1040" y="-1810" width="320" height="170" as="geometry" />
        </mxCell>
        <mxCell id="u_MexKkUD5SQfgYGNneM-102" value="" style="rounded=0;whiteSpace=wrap;html=1;fillColor=#000000;rotation=0;" parent="1" vertex="1">
          <mxGeometry x="-730" y="-1720" width="96" height="80" as="geometry" />
        </mxCell>
        <mxCell id="u_MexKkUD5SQfgYGNneM-103" value="" style="ellipse;whiteSpace=wrap;html=1;aspect=fixed;fillColor=#CC0000;fontColor=#000000;strokeColor=#000000;" parent="1" vertex="1">
          <mxGeometry x="-647" y="-1790" width="24" height="24" as="geometry" />
        </mxCell>
        <mxCell id="u_MexKkUD5SQfgYGNneM-104" value="" style="ellipse;whiteSpace=wrap;html=1;aspect=fixed;fillColor=#CC0000;fontColor=#000000;strokeColor=#000000;" parent="1" vertex="1">
          <mxGeometry x="-671" y="-1874" width="24" height="24" as="geometry" />
        </mxCell>
        <mxCell id="u_MexKkUD5SQfgYGNneM-105" value="" style="ellipse;whiteSpace=wrap;html=1;aspect=fixed;fillColor=#CC0000;fontColor=#000000;strokeColor=#000000;" parent="1" vertex="1">
          <mxGeometry x="-647" y="-1950" width="24" height="24" as="geometry" />
        </mxCell>
        <mxCell id="u_MexKkUD5SQfgYGNneM-106" value="" style="ellipse;whiteSpace=wrap;html=1;aspect=fixed;fillColor=#CC0000;fontColor=#000000;strokeColor=#000000;" parent="1" vertex="1">
          <mxGeometry x="-590" y="-1904" width="24" height="24" as="geometry" />
        </mxCell>
        <mxCell id="u_MexKkUD5SQfgYGNneM-117" value="" style="endArrow=none;html=1;rounded=0;exitX=1;exitY=0;exitDx=0;exitDy=0;entryX=0.998;entryY=0.982;entryDx=0;entryDy=0;entryPerimeter=0;" parent="1" source="u_MexKkUD5SQfgYGNneM-101" target="u_MexKkUD5SQfgYGNneM-100" edge="1">
          <mxGeometry width="50" height="50" relative="1" as="geometry">
            <mxPoint x="-770" y="-1820" as="sourcePoint" />
            <mxPoint x="-720" y="-1870" as="targetPoint" />
          </mxGeometry>
        </mxCell>
        <mxCell id="u_MexKkUD5SQfgYGNneM-118" value="" style="endArrow=none;html=1;rounded=0;exitX=1;exitY=0;exitDx=0;exitDy=0;entryX=0.998;entryY=0.982;entryDx=0;entryDy=0;entryPerimeter=0;" parent="1" edge="1">
          <mxGeometry width="50" height="50" relative="1" as="geometry">
            <mxPoint x="-740" y="-1807" as="sourcePoint" />
            <mxPoint x="-740" y="-1880" as="targetPoint" />
          </mxGeometry>
        </mxCell>
        <mxCell id="u_MexKkUD5SQfgYGNneM-119" value="" style="endArrow=none;html=1;rounded=0;exitX=1;exitY=0;exitDx=0;exitDy=0;entryX=0.998;entryY=0.982;entryDx=0;entryDy=0;entryPerimeter=0;" parent="1" edge="1">
          <mxGeometry width="50" height="50" relative="1" as="geometry">
            <mxPoint x="-730" y="-1807" as="sourcePoint" />
            <mxPoint x="-730" y="-1880" as="targetPoint" />
          </mxGeometry>
        </mxCell>
        <mxCell id="u_MexKkUD5SQfgYGNneM-121" value="" style="endArrow=none;html=1;rounded=0;exitX=1;exitY=0;exitDx=0;exitDy=0;entryX=0.998;entryY=0.982;entryDx=0;entryDy=0;entryPerimeter=0;" parent="1" edge="1">
          <mxGeometry width="50" height="50" relative="1" as="geometry">
            <mxPoint x="-750" y="-1807" as="sourcePoint" />
            <mxPoint x="-750" y="-1880" as="targetPoint" />
          </mxGeometry>
        </mxCell>
        <mxCell id="u_MexKkUD5SQfgYGNneM-122" value="" style="endArrow=none;html=1;rounded=0;exitX=1;exitY=0;exitDx=0;exitDy=0;entryX=0.998;entryY=0.982;entryDx=0;entryDy=0;entryPerimeter=0;" parent="1" edge="1">
          <mxGeometry width="50" height="50" relative="1" as="geometry">
            <mxPoint x="-760" y="-1807" as="sourcePoint" />
            <mxPoint x="-760" y="-1880" as="targetPoint" />
          </mxGeometry>
        </mxCell>
        <mxCell id="u_MexKkUD5SQfgYGNneM-123" value="" style="endArrow=none;html=1;rounded=0;exitX=1;exitY=0;exitDx=0;exitDy=0;entryX=0.998;entryY=0.982;entryDx=0;entryDy=0;entryPerimeter=0;" parent="1" edge="1">
          <mxGeometry width="50" height="50" relative="1" as="geometry">
            <mxPoint x="-770" y="-1807" as="sourcePoint" />
            <mxPoint x="-770" y="-1880" as="targetPoint" />
          </mxGeometry>
        </mxCell>
        <mxCell id="u_MexKkUD5SQfgYGNneM-124" value="" style="endArrow=none;html=1;rounded=0;exitX=1;exitY=0;exitDx=0;exitDy=0;entryX=0.998;entryY=0.982;entryDx=0;entryDy=0;entryPerimeter=0;" parent="1" edge="1">
          <mxGeometry width="50" height="50" relative="1" as="geometry">
            <mxPoint x="-780.24" y="-1807" as="sourcePoint" />
            <mxPoint x="-780.24" y="-1880" as="targetPoint" />
          </mxGeometry>
        </mxCell>
        <mxCell id="u_MexKkUD5SQfgYGNneM-125" value="" style="endArrow=none;html=1;rounded=0;exitX=1;exitY=0;exitDx=0;exitDy=0;entryX=0.998;entryY=0.982;entryDx=0;entryDy=0;entryPerimeter=0;" parent="1" edge="1">
          <mxGeometry width="50" height="50" relative="1" as="geometry">
            <mxPoint x="-790" y="-1807" as="sourcePoint" />
            <mxPoint x="-790" y="-1880" as="targetPoint" />
          </mxGeometry>
        </mxCell>
        <mxCell id="u_MexKkUD5SQfgYGNneM-126" value="" style="endArrow=none;html=1;rounded=0;exitX=1;exitY=0;exitDx=0;exitDy=0;entryX=0.998;entryY=0.982;entryDx=0;entryDy=0;entryPerimeter=0;" parent="1" edge="1">
          <mxGeometry width="50" height="50" relative="1" as="geometry">
            <mxPoint x="-800" y="-1807" as="sourcePoint" />
            <mxPoint x="-800" y="-1880" as="targetPoint" />
          </mxGeometry>
        </mxCell>
        <mxCell id="u_MexKkUD5SQfgYGNneM-127" value="" style="endArrow=none;html=1;rounded=0;exitX=1;exitY=0;exitDx=0;exitDy=0;entryX=0.998;entryY=0.982;entryDx=0;entryDy=0;entryPerimeter=0;" parent="1" edge="1">
          <mxGeometry width="50" height="50" relative="1" as="geometry">
            <mxPoint x="-810" y="-1807" as="sourcePoint" />
            <mxPoint x="-810" y="-1880" as="targetPoint" />
          </mxGeometry>
        </mxCell>
        <mxCell id="u_MexKkUD5SQfgYGNneM-128" value="" style="endArrow=none;html=1;rounded=0;exitX=1;exitY=0;exitDx=0;exitDy=0;entryX=0.998;entryY=0.982;entryDx=0;entryDy=0;entryPerimeter=0;" parent="1" edge="1">
          <mxGeometry width="50" height="50" relative="1" as="geometry">
            <mxPoint x="-820" y="-1807" as="sourcePoint" />
            <mxPoint x="-820" y="-1880" as="targetPoint" />
          </mxGeometry>
        </mxCell>
        <mxCell id="u_MexKkUD5SQfgYGNneM-129" value="" style="endArrow=none;html=1;rounded=0;exitX=1;exitY=0;exitDx=0;exitDy=0;entryX=0.998;entryY=0.982;entryDx=0;entryDy=0;entryPerimeter=0;" parent="1" edge="1">
          <mxGeometry width="50" height="50" relative="1" as="geometry">
            <mxPoint x="-840" y="-1810" as="sourcePoint" />
            <mxPoint x="-840" y="-1883" as="targetPoint" />
          </mxGeometry>
        </mxCell>
        <mxCell id="u_MexKkUD5SQfgYGNneM-130" value="" style="endArrow=none;html=1;rounded=0;exitX=1;exitY=0;exitDx=0;exitDy=0;entryX=0.998;entryY=0.982;entryDx=0;entryDy=0;entryPerimeter=0;" parent="1" edge="1">
          <mxGeometry width="50" height="50" relative="1" as="geometry">
            <mxPoint x="-830" y="-1810" as="sourcePoint" />
            <mxPoint x="-830" y="-1883" as="targetPoint" />
          </mxGeometry>
        </mxCell>
        <mxCell id="u_MexKkUD5SQfgYGNneM-131" value="" style="rounded=0;whiteSpace=wrap;html=1;fillColor=#000000;rotation=0;" parent="1" vertex="1">
          <mxGeometry x="-1160" y="-2170" width="120" height="530" as="geometry" />
        </mxCell>
        <mxCell id="u_MexKkUD5SQfgYGNneM-132" value="" style="rounded=0;whiteSpace=wrap;html=1;fillColor=#000000;rotation=0;" parent="1" vertex="1">
          <mxGeometry x="-960" y="-2360" width="120" height="360" as="geometry" />
        </mxCell>
        <mxCell id="u_MexKkUD5SQfgYGNneM-133" value="" style="ellipse;whiteSpace=wrap;html=1;aspect=fixed;fillColor=#CC0000;fontColor=#000000;strokeColor=#000000;" parent="1" vertex="1">
          <mxGeometry x="-950" y="-1980" width="24" height="24" as="geometry" />
        </mxCell>
        <mxCell id="u_MexKkUD5SQfgYGNneM-134" value="" style="rounded=0;whiteSpace=wrap;html=1;fillColor=#000000;rotation=0;" parent="1" vertex="1">
          <mxGeometry x="-1240" y="-2520" width="400" height="160" as="geometry" />
        </mxCell>
        <mxCell id="u_MexKkUD5SQfgYGNneM-135" value="" style="rounded=0;whiteSpace=wrap;html=1;fillColor=#000000;rotation=0;" parent="1" vertex="1">
          <mxGeometry x="-1240" y="-2170" width="80" height="90" as="geometry" />
        </mxCell>
        <mxCell id="u_MexKkUD5SQfgYGNneM-136" value="" style="rounded=0;whiteSpace=wrap;html=1;fillColor=#000000;rotation=0;" parent="1" vertex="1">
          <mxGeometry x="-1320" y="-2720" width="80" height="400" as="geometry" />
        </mxCell>
        <mxCell id="u_MexKkUD5SQfgYGNneM-137" value="" style="rounded=0;whiteSpace=wrap;html=1;fillColor=#000000;rotation=0;" parent="1" vertex="1">
          <mxGeometry x="-1320" y="-2240" width="80" height="160" as="geometry" />
        </mxCell>
        <mxCell id="u_MexKkUD5SQfgYGNneM-139" value="" style="ellipse;whiteSpace=wrap;html=1;aspect=fixed;fillColor=#dae8fc;strokeColor=#6c8ebf;" parent="1" vertex="1">
          <mxGeometry x="-1540" y="-2520" width="24" height="24" as="geometry" />
        </mxCell>
        <mxCell id="u_MexKkUD5SQfgYGNneM-141" value="" style="ellipse;whiteSpace=wrap;html=1;aspect=fixed;fillColor=#CC0000;fontColor=#000000;strokeColor=#000000;" parent="1" vertex="1">
          <mxGeometry x="-1510" y="-2624" width="24" height="24" as="geometry" />
        </mxCell>
        <mxCell id="u_MexKkUD5SQfgYGNneM-142" value="" style="ellipse;whiteSpace=wrap;html=1;aspect=fixed;fillColor=#CC0000;fontColor=#000000;strokeColor=#000000;" parent="1" vertex="1">
          <mxGeometry x="-1420" y="-2560" width="24" height="24" as="geometry" />
        </mxCell>
        <mxCell id="u_MexKkUD5SQfgYGNneM-143" value="" style="ellipse;whiteSpace=wrap;html=1;aspect=fixed;fillColor=#CC0000;fontColor=#000000;strokeColor=#000000;" parent="1" vertex="1">
          <mxGeometry x="-1620" y="-2584" width="24" height="24" as="geometry" />
        </mxCell>
        <mxCell id="u_MexKkUD5SQfgYGNneM-144" value="" style="ellipse;whiteSpace=wrap;html=1;aspect=fixed;fillColor=#CC0000;fontColor=#000000;strokeColor=#000000;" parent="1" vertex="1">
          <mxGeometry x="-1570" y="-2670" width="24" height="24" as="geometry" />
        </mxCell>
        <mxCell id="u_MexKkUD5SQfgYGNneM-145" value="" style="ellipse;whiteSpace=wrap;html=1;aspect=fixed;fillColor=#CC0000;fontColor=#000000;strokeColor=#000000;" parent="1" vertex="1">
          <mxGeometry x="-1444" y="-2660" width="24" height="24" as="geometry" />
        </mxCell>
        <mxCell id="u_MexKkUD5SQfgYGNneM-146" value="" style="rounded=0;whiteSpace=wrap;html=1;" parent="1" vertex="1">
          <mxGeometry x="-1040" y="-2170" width="80" height="170" as="geometry" />
        </mxCell>
        <mxCell id="u_MexKkUD5SQfgYGNneM-147" value="" style="endArrow=classic;html=1;rounded=0;entryX=0.5;entryY=0;entryDx=0;entryDy=0;" parent="1" target="u_MexKkUD5SQfgYGNneM-146" edge="1">
          <mxGeometry width="50" height="50" relative="1" as="geometry">
            <mxPoint x="-1000" y="-2000" as="sourcePoint" />
            <mxPoint x="-950" y="-2050" as="targetPoint" />
          </mxGeometry>
        </mxCell>
        <mxCell id="u_MexKkUD5SQfgYGNneM-148" value="" style="rounded=0;whiteSpace=wrap;html=1;" parent="1" vertex="1">
          <mxGeometry x="-1680" y="-2320" width="360" height="80" as="geometry" />
        </mxCell>
        <mxCell id="u_MexKkUD5SQfgYGNneM-149" value="" style="rounded=0;whiteSpace=wrap;html=1;fillColor=#000000;rotation=0;" parent="1" vertex="1">
          <mxGeometry x="-1840" y="-2520" width="160" height="370" as="geometry" />
        </mxCell>
        <mxCell id="u_MexKkUD5SQfgYGNneM-150" value="" style="rounded=0;whiteSpace=wrap;html=1;fillColor=#000000;rotation=0;" parent="1" vertex="1">
          <mxGeometry x="-1680" y="-2240" width="360" height="20" as="geometry" />
        </mxCell>
        <mxCell id="u_MexKkUD5SQfgYGNneM-151" value="" style="rounded=0;whiteSpace=wrap;html=1;fillColor=#000000;rotation=0;" parent="1" vertex="1">
          <mxGeometry x="-1680" y="-2320" width="40" height="10" as="geometry" />
        </mxCell>
        <mxCell id="u_MexKkUD5SQfgYGNneM-152" value="" style="rounded=0;whiteSpace=wrap;html=1;fillColor=#000000;rotation=0;" parent="1" vertex="1">
          <mxGeometry x="-1560" y="-2320" width="40" height="10" as="geometry" />
        </mxCell>
        <mxCell id="u_MexKkUD5SQfgYGNneM-153" value="" style="rounded=0;whiteSpace=wrap;html=1;fillColor=#000000;rotation=0;" parent="1" vertex="1">
          <mxGeometry x="-1500" y="-2320" width="40" height="10" as="geometry" />
        </mxCell>
        <mxCell id="u_MexKkUD5SQfgYGNneM-154" value="" style="rounded=0;whiteSpace=wrap;html=1;fillColor=#000000;rotation=0;" parent="1" vertex="1">
          <mxGeometry x="-1444" y="-2320" width="64" height="10" as="geometry" />
        </mxCell>
        <mxCell id="u_MexKkUD5SQfgYGNneM-155" value="" style="ellipse;whiteSpace=wrap;html=1;aspect=fixed;fillColor=#CC0000;fontColor=#000000;strokeColor=#000000;" parent="1" vertex="1">
          <mxGeometry x="-1596" y="-2480" width="24" height="24" as="geometry" />
        </mxCell>
        <mxCell id="u_MexKkUD5SQfgYGNneM-156" value="" style="ellipse;whiteSpace=wrap;html=1;aspect=fixed;fillColor=#CC0000;fontColor=#000000;strokeColor=#000000;" parent="1" vertex="1">
          <mxGeometry x="-1486" y="-2452" width="24" height="24" as="geometry" />
        </mxCell>
        <mxCell id="u_MexKkUD5SQfgYGNneM-157" value="" style="rounded=0;whiteSpace=wrap;html=1;fillColor=#000000;rotation=0;" parent="1" vertex="1">
          <mxGeometry x="-1680" y="-2810" width="440" height="90" as="geometry" />
        </mxCell>
        <mxCell id="u_MexKkUD5SQfgYGNneM-158" value="" style="rounded=0;whiteSpace=wrap;html=1;fillColor=#000000;rotation=0;" parent="1" vertex="1">
          <mxGeometry x="-1760" y="-2810" width="80" height="210" as="geometry" />
        </mxCell>
        <mxCell id="bwI156M1zepIyJx2u7Y0-1" value="" style="rounded=0;whiteSpace=wrap;html=1;fillColor=#000000;rotation=0;" vertex="1" parent="1">
          <mxGeometry x="-2120" y="-2811" width="360" height="92" as="geometry" />
        </mxCell>
        <mxCell id="bwI156M1zepIyJx2u7Y0-2" value="" style="rounded=0;whiteSpace=wrap;html=1;fillColor=#000000;rotation=0;" vertex="1" parent="1">
          <mxGeometry x="-2120" y="-2719" width="160" height="799" as="geometry" />
        </mxCell>
        <mxCell id="bwI156M1zepIyJx2u7Y0-3" value="" style="rounded=0;whiteSpace=wrap;html=1;fillColor=#000000;rotation=0;" vertex="1" parent="1">
          <mxGeometry x="-1840" y="-2150" width="160" height="230" as="geometry" />
        </mxCell>
        <mxCell id="bwI156M1zepIyJx2u7Y0-4" value="" style="rounded=0;whiteSpace=wrap;html=1;fillColor=#60a917;rotation=90;fontColor=#ffffff;strokeColor=#2D7600;" vertex="1" parent="1">
          <mxGeometry x="-2014.75" y="-1839" width="28.5" height="325" as="geometry" />
        </mxCell>
        <mxCell id="bwI156M1zepIyJx2u7Y0-6" value="" style="rounded=0;whiteSpace=wrap;html=1;fillColor=#000000;rotation=0;" vertex="1" parent="1">
          <mxGeometry x="-1840" y="-1800" width="80" height="160" as="geometry" />
        </mxCell>
        <mxCell id="bwI156M1zepIyJx2u7Y0-7" value="" style="rounded=0;whiteSpace=wrap;html=1;fillColor=#e3c800;rotation=0;fontColor=#000000;strokeColor=#B09500;" vertex="1" parent="1">
          <mxGeometry x="-1802" y="-1920" width="10" height="120" as="geometry" />
        </mxCell>
        <mxCell id="bwI156M1zepIyJx2u7Y0-9" value="" style="ellipse;whiteSpace=wrap;html=1;aspect=fixed;fillColor=#CC0000;fontColor=#000000;strokeColor=#000000;" vertex="1" parent="1">
          <mxGeometry x="-1720" y="-1894" width="24" height="24" as="geometry" />
        </mxCell>
        <mxCell id="bwI156M1zepIyJx2u7Y0-10" value="" style="ellipse;whiteSpace=wrap;html=1;aspect=fixed;fillColor=#CC0000;fontColor=#000000;strokeColor=#000000;" vertex="1" parent="1">
          <mxGeometry x="-1540" y="-2194" width="24" height="24" as="geometry" />
        </mxCell>
        <mxCell id="bwI156M1zepIyJx2u7Y0-11" value="" style="ellipse;whiteSpace=wrap;html=1;aspect=fixed;fillColor=#CC0000;fontColor=#000000;strokeColor=#000000;" vertex="1" parent="1">
          <mxGeometry x="-1662" y="-2097" width="24" height="24" as="geometry" />
        </mxCell>
        <mxCell id="bwI156M1zepIyJx2u7Y0-12" value="" style="ellipse;whiteSpace=wrap;html=1;aspect=fixed;fillColor=#CC0000;fontColor=#000000;strokeColor=#000000;" vertex="1" parent="1">
          <mxGeometry x="-1396" y="-2170" width="24" height="24" as="geometry" />
        </mxCell>
        <mxCell id="bwI156M1zepIyJx2u7Y0-13" value="" style="ellipse;whiteSpace=wrap;html=1;aspect=fixed;fillColor=#CC0000;fontColor=#000000;strokeColor=#000000;" vertex="1" parent="1">
          <mxGeometry x="-1620" y="-1870" width="24" height="24" as="geometry" />
        </mxCell>
        <mxCell id="bwI156M1zepIyJx2u7Y0-14" value="" style="rounded=0;whiteSpace=wrap;html=1;fillColor=#000000;rotation=0;" vertex="1" parent="1">
          <mxGeometry x="-1760" y="-1800" width="600" height="162.5" as="geometry" />
        </mxCell>
        <mxCell id="bwI156M1zepIyJx2u7Y0-15" value="" style="endArrow=none;html=1;rounded=0;exitX=1;exitY=0.25;exitDx=0;exitDy=0;entryX=0;entryY=0;entryDx=0;entryDy=0;" edge="1" parent="1" source="bwI156M1zepIyJx2u7Y0-2" target="u_MexKkUD5SQfgYGNneM-149">
          <mxGeometry width="50" height="50" relative="1" as="geometry">
            <mxPoint x="-1900" y="-2430" as="sourcePoint" />
            <mxPoint x="-1850" y="-2480" as="targetPoint" />
          </mxGeometry>
        </mxCell>
        <mxCell id="bwI156M1zepIyJx2u7Y0-16" value="" style="endArrow=none;html=1;rounded=0;exitX=1;exitY=0.293;exitDx=0;exitDy=0;exitPerimeter=0;entryX=0;entryY=0;entryDx=0;entryDy=0;" edge="1" parent="1">
          <mxGeometry width="50" height="50" relative="1" as="geometry">
            <mxPoint x="-1960" y="-2041.18" as="sourcePoint" />
            <mxPoint x="-1840" y="-2041.18" as="targetPoint" />
          </mxGeometry>
        </mxCell>
        <mxCell id="bwI156M1zepIyJx2u7Y0-18" value="" style="endArrow=classic;html=1;rounded=0;" edge="1" parent="1">
          <mxGeometry width="50" height="50" relative="1" as="geometry">
            <mxPoint x="-1900" y="-2520" as="sourcePoint" />
            <mxPoint x="-1900" y="-2040" as="targetPoint" />
          </mxGeometry>
        </mxCell>
        <mxCell id="bwI156M1zepIyJx2u7Y0-19" value="" style="rounded=0;whiteSpace=wrap;html=1;fillColor=#000000;rotation=0;" vertex="1" parent="1">
          <mxGeometry x="-2640" y="-2640" width="359" height="1200" as="geometry" />
        </mxCell>
        <mxCell id="bwI156M1zepIyJx2u7Y0-20" value="" style="rounded=0;whiteSpace=wrap;html=1;fillColor=#e3c800;rotation=90;fontColor=#000000;strokeColor=#B09500;" vertex="1" parent="1">
          <mxGeometry x="-2227" y="-1734.5" width="10" height="117" as="geometry" />
        </mxCell>
        <mxCell id="bwI156M1zepIyJx2u7Y0-21" value="" style="rounded=0;whiteSpace=wrap;html=1;fillColor=#000000;rotation=0;" vertex="1" parent="1">
          <mxGeometry x="-2560" y="-1440" width="720" height="160" as="geometry" />
        </mxCell>
        <mxCell id="bwI156M1zepIyJx2u7Y0-22" value="" style="rounded=0;whiteSpace=wrap;html=1;fillColor=#000000;rotation=0;" vertex="1" parent="1">
          <mxGeometry x="-1840" y="-1640" width="319" height="360" as="geometry" />
        </mxCell>
        <mxCell id="bwI156M1zepIyJx2u7Y0-23" value="" style="ellipse;whiteSpace=wrap;html=1;aspect=fixed;fillColor=#CC0000;fontColor=#000000;strokeColor=#000000;" vertex="1" parent="1">
          <mxGeometry x="-2180" y="-1620" width="24" height="24" as="geometry" />
        </mxCell>
        <mxCell id="bwI156M1zepIyJx2u7Y0-24" value="" style="ellipse;whiteSpace=wrap;html=1;aspect=fixed;fillColor=#CC0000;fontColor=#000000;strokeColor=#000000;" vertex="1" parent="1">
          <mxGeometry x="-2270" y="-1661.5" width="24" height="24" as="geometry" />
        </mxCell>
        <mxCell id="bwI156M1zepIyJx2u7Y0-25" value="" style="ellipse;whiteSpace=wrap;html=1;aspect=fixed;fillColor=#CC0000;fontColor=#000000;strokeColor=#000000;" vertex="1" parent="1">
          <mxGeometry x="-2190" y="-1514" width="24" height="24" as="geometry" />
        </mxCell>
        <mxCell id="bwI156M1zepIyJx2u7Y0-26" value="" style="ellipse;whiteSpace=wrap;html=1;aspect=fixed;fillColor=#CC0000;fontColor=#000000;strokeColor=#000000;" vertex="1" parent="1">
          <mxGeometry x="-2260" y="-2584" width="24" height="24" as="geometry" />
        </mxCell>
        <mxCell id="bwI156M1zepIyJx2u7Y0-27" value="" style="ellipse;whiteSpace=wrap;html=1;aspect=fixed;fillColor=#CC0000;fontColor=#000000;strokeColor=#000000;" vertex="1" parent="1">
          <mxGeometry x="-2190" y="-2536" width="24" height="24" as="geometry" />
        </mxCell>
        <mxCell id="bwI156M1zepIyJx2u7Y0-28" value="" style="ellipse;whiteSpace=wrap;html=1;aspect=fixed;fillColor=#CC0000;fontColor=#000000;strokeColor=#000000;" vertex="1" parent="1">
          <mxGeometry x="-2246" y="-2480" width="24" height="24" as="geometry" />
        </mxCell>
        <mxCell id="bwI156M1zepIyJx2u7Y0-29" value="" style="ellipse;whiteSpace=wrap;html=1;aspect=fixed;fillColor=#CC0000;fontColor=#000000;strokeColor=#000000;" vertex="1" parent="1">
          <mxGeometry x="-2160" y="-2410" width="24" height="24" as="geometry" />
        </mxCell>
        <mxCell id="bwI156M1zepIyJx2u7Y0-34" value="" style="rounded=0;whiteSpace=wrap;html=1;fillColor=#6a00ff;rotation=-15;fontColor=#ffffff;strokeColor=#3700CC;" vertex="1" parent="1">
          <mxGeometry x="-2710" y="-3330" width="100" height="440" as="geometry" />
        </mxCell>
        <mxCell id="bwI156M1zepIyJx2u7Y0-35" value="" style="rounded=0;whiteSpace=wrap;html=1;fillColor=#6a00ff;rotation=-124;fontColor=#ffffff;strokeColor=#3700CC;" vertex="1" parent="1">
          <mxGeometry x="-2440" y="-3170" width="120" height="350" as="geometry" />
        </mxCell>
        <mxCell id="bwI156M1zepIyJx2u7Y0-40" value="" style="rounded=0;whiteSpace=wrap;html=1;fillColor=#6a00ff;rotation=-105;fontColor=#ffffff;strokeColor=#3700CC;" vertex="1" parent="1">
          <mxGeometry x="-2560" y="-2880" width="80" height="160" as="geometry" />
        </mxCell>
        <mxCell id="bwI156M1zepIyJx2u7Y0-44" value="" style="endArrow=none;html=1;rounded=0;strokeWidth=5;fillColor=#60a917;strokeColor=#2D7600;" edge="1" parent="1">
          <mxGeometry width="50" height="50" relative="1" as="geometry">
            <mxPoint x="-2640" y="-2760" as="sourcePoint" />
            <mxPoint x="-2281" y="-2760" as="targetPoint" />
            <Array as="points">
              <mxPoint x="-2550" y="-2710" />
            </Array>
          </mxGeometry>
        </mxCell>
        <mxCell id="bwI156M1zepIyJx2u7Y0-45" value="" style="endArrow=none;html=1;rounded=0;strokeWidth=5;fillColor=#60a917;strokeColor=#2D7600;" edge="1" parent="1">
          <mxGeometry width="50" height="50" relative="1" as="geometry">
            <mxPoint x="-2637" y="-2640" as="sourcePoint" />
            <mxPoint x="-2637" y="-2760" as="targetPoint" />
          </mxGeometry>
        </mxCell>
        <mxCell id="bwI156M1zepIyJx2u7Y0-46" value="" style="endArrow=none;html=1;rounded=0;strokeWidth=5;fillColor=#60a917;strokeColor=#2D7600;" edge="1" parent="1">
          <mxGeometry width="50" height="50" relative="1" as="geometry">
            <mxPoint x="-2282" y="-2641" as="sourcePoint" />
            <mxPoint x="-2282" y="-2761" as="targetPoint" />
          </mxGeometry>
        </mxCell>
      </root>
    </mxGraphModel>
  </diagram>
</mxfile>
